<svg width="680" height="900" viewBox="0 0 680 900" xmlns="http://www.w3.org/2000/svg">
<defs><marker id="arrow" viewBox="0 0 10 10" refX="8" refY="5" markerWidth="6" markerHeight="6" orient="auto-start-reverse"><path d="M2 1L8 5L2 9" fill="none" stroke="#000" stroke-width="1.5" stroke-linecap="round" stroke-linejoin="round"/></marker></defs>
<style>
text{font-family:Helvetica,Arial,sans-serif;fill:#000}
.t{font-size:14px}.ts{font-size:12px}.th{font-size:14px;font-weight:bold}
line,path,rect,polygon{stroke:#000}
</style>
<rect x="0" y="0" width="680" height="900" fill="#fff" stroke="none"/>

<line x1="60" y1="700" x2="640" y2="700" stroke-width="1.5"/>
<g stroke-width="1.5">
<line x1="470" y1="700" x2="470" y2="710"/><line x1="462" y1="710" x2="478" y2="710"/><line x1="465" y1="715" x2="475" y2="715"/><line x1="468" y1="720" x2="472" y2="720"/>
</g>
<text class="ts" x="640" y="692" text-anchor="end">GND</text>

<line x1="250" y1="80" x2="330" y2="80" stroke-width="1"/>
<circle cx="300" cy="80" r="3" fill="#000"/>
<text class="th" x="293" y="46" text-anchor="middle">v</text><text x="299" y="49" font-size="10" font-weight="bold">C1</text>
<rect x="330" y="69" width="70" height="22" rx="3" fill="none" stroke-width="1"/>
<text class="ts" x="365" y="60" text-anchor="middle">Rs 1.13 kΩ</text>
<line x1="400" y1="80" x2="430" y2="80" stroke-width="1"/>
<rect x="430" y="69" width="70" height="22" rx="3" fill="none" stroke-width="1"/>
<line x1="450" y1="48" x2="465" y2="66" stroke-width="1" marker-end="url(#arrow)"/>
<text class="ts" x="465" y="40" text-anchor="middle">R 0–1 kΩ</text>
<line x1="500" y1="80" x2="620" y2="80" stroke-width="1"/>
<circle cx="530" cy="80" r="3" fill="#000"/>
<text class="th" x="523" y="46" text-anchor="middle">v</text><text x="529" y="49" font-size="10" font-weight="bold">C2</text>

<line x1="300" y1="80" x2="300" y2="296" stroke-width="1"/>
<line x1="288" y1="296" x2="312" y2="296" stroke-width="1.5"/>
<line x1="288" y1="304" x2="312" y2="304" stroke-width="1.5"/>
<line x1="300" y1="304" x2="300" y2="700" stroke-width="1"/>
<text class="ts" x="318" y="294">C1 = 10 nF</text>
<text class="ts" x="318" y="312">→ scope CH2</text>

<line x1="530" y1="80" x2="530" y2="296" stroke-width="1"/>
<line x1="518" y1="296" x2="542" y2="296" stroke-width="1.5"/>
<line x1="518" y1="304" x2="542" y2="304" stroke-width="1.5"/>
<line x1="530" y1="304" x2="530" y2="700" stroke-width="1"/>
<text class="ts" x="512" y="294" text-anchor="end">C2 = 100 nF</text>
<text class="ts" x="512" y="312" text-anchor="end">→ scope CH1</text>

<line x1="620" y1="80" x2="620" y2="180" stroke-width="1"/>
<path d="M620 180 C632 180 632 200 620 200 C632 200 632 220 620 220 C632 220 632 240 620 240 C632 240 632 260 620 260" fill="none" stroke-width="1.2"/>
<text class="ts" x="608" y="224" text-anchor="end">L = 18 mH</text>
<line x1="620" y1="260" x2="620" y2="560" stroke-width="1"/>
<rect x="608" y="560" width="24" height="50" rx="3" fill="none" stroke-width="1"/>
<text class="ts" x="600" y="580" text-anchor="end">shunt</text>
<text class="ts" x="600" y="598" text-anchor="end">→ scope V3 (iL)</text>
<line x1="620" y1="610" x2="620" y2="700" stroke-width="1"/>

<rect x="40" y="58" width="240" height="562" rx="10" stroke-width="0.75" stroke-dasharray="5 4" fill="none" stroke="#555"/>
<text class="th" x="60" y="642">Chua diode N</text><text x="158" y="645" font-size="10" font-weight="bold">R</text>
<text class="ts" x="60" y="660">Kennedy, dual op-amp</text>

<line x1="250" y1="80" x2="250" y2="360" stroke-width="1"/>

<polygon points="100,160 100,220 170,190" fill="none" stroke-width="1"/>
<text class="ts" x="118" y="193">A1</text>
<text class="ts" x="106" y="178">+</text>
<text class="ts" x="106" y="212">−</text>
<line x1="128" y1="172" x2="128" y2="152" stroke-width="1"/>
<text class="ts" x="134" y="156">+9 V</text>
<line x1="128" y1="208" x2="128" y2="228" stroke-width="1"/>
<text class="ts" x="134" y="238">−9 V</text>
<line x1="170" y1="190" x2="190" y2="190" stroke-width="1"/>
<line x1="190" y1="190" x2="190" y2="131" stroke-width="1"/>
<rect x="165" y="109" width="50" height="22" rx="3" fill="none" stroke-width="1"/>
<line x1="190" y1="131" x2="190" y2="120" stroke-width="1"/>
<line x1="190" y1="120" x2="165" y2="120" stroke-width="1"/>
<line x1="215" y1="120" x2="250" y2="120" stroke-width="1"/>
<circle cx="250" cy="120" r="3" fill="#000"/>
<text class="ts" x="150" y="104" text-anchor="middle">R1 220 Ω</text>

<line x1="100" y1="175" x2="85" y2="175" stroke-width="1"/>
<line x1="85" y1="175" x2="85" y2="95" stroke-width="1"/>
<line x1="85" y1="95" x2="250" y2="95" stroke-width="1"/>
<circle cx="250" cy="95" r="3" fill="#000"/>

<line x1="190" y1="190" x2="190" y2="260" stroke-width="1"/>
<circle cx="190" cy="190" r="2.5" fill="#000"/>
<line x1="190" y1="260" x2="165" y2="260" stroke-width="1"/>
<rect x="105" y="249" width="60" height="22" rx="3" fill="none" stroke-width="1"/>
<text class="ts" x="135" y="288" text-anchor="middle">R2 220 Ω</text>
<line x1="105" y1="260" x2="70" y2="260" stroke-width="1"/>
<line x1="70" y1="260" x2="70" y2="205" stroke-width="1"/>
<line x1="70" y1="205" x2="100" y2="205" stroke-width="1"/>
<circle cx="70" cy="260" r="2.5" fill="#000"/>
<line x1="70" y1="260" x2="70" y2="292" stroke-width="1"/>
<rect x="59" y="292" width="22" height="50" rx="3" fill="none" stroke-width="1"/>
<text class="ts" x="90" y="384">R3 2.2 kΩ</text>
<line x1="70" y1="342" x2="70" y2="700" stroke-width="1"/>

<polygon points="100,400 100,460 170,430" fill="none" stroke-width="1"/>
<text class="ts" x="118" y="433">A2</text>
<text class="ts" x="106" y="418">+</text>
<text class="ts" x="106" y="452">−</text>
<line x1="128" y1="412" x2="128" y2="392" stroke-width="1"/>
<text class="ts" x="134" y="396">+9 V</text>
<line x1="128" y1="448" x2="128" y2="468" stroke-width="1"/>
<text class="ts" x="134" y="478">−9 V</text>
<line x1="170" y1="430" x2="190" y2="430" stroke-width="1"/>
<line x1="190" y1="430" x2="190" y2="360" stroke-width="1"/>
<line x1="190" y1="360" x2="165" y2="360" stroke-width="1"/>
<rect x="165" y="349" width="50" height="22" rx="3" fill="none" stroke-width="1"/>
<line x1="215" y1="360" x2="250" y2="360" stroke-width="1"/>
<circle cx="250" cy="360" r="3" fill="#000"/>
<text class="ts" x="150" y="344" text-anchor="middle">R4 22 kΩ</text>

<line x1="100" y1="415" x2="85" y2="415" stroke-width="1"/>
<line x1="85" y1="415" x2="85" y2="330" stroke-width="1"/>
<line x1="85" y1="330" x2="250" y2="330" stroke-width="1"/>
<circle cx="250" cy="330" r="3" fill="#000"/>

<line x1="190" y1="430" x2="190" y2="500" stroke-width="1"/>
<circle cx="190" cy="430" r="2.5" fill="#000"/>
<line x1="190" y1="500" x2="165" y2="500" stroke-width="1"/>
<rect x="105" y="489" width="60" height="22" rx="3" fill="none" stroke-width="1"/>
<text class="ts" x="135" y="528" text-anchor="middle">R5 22 kΩ</text>
<line x1="105" y1="500" x2="60" y2="500" stroke-width="1"/>
<line x1="60" y1="500" x2="60" y2="445" stroke-width="1"/>
<line x1="60" y1="445" x2="100" y2="445" stroke-width="1"/>
<circle cx="60" cy="500" r="2.5" fill="#000"/>
<line x1="60" y1="500" x2="60" y2="540" stroke-width="1"/>
<rect x="49" y="540" width="22" height="50" rx="3" fill="none" stroke-width="1"/>
<text class="ts" x="80" y="568">R6 3.3 kΩ</text>
<line x1="60" y1="590" x2="60" y2="700" stroke-width="1"/>

<text class="th" x="60" y="756">Supply decoupling (TL082 shared pins 8 / 4)</text>
<text class="ts" x="60" y="800">+9 V (pin 8)</text>
<line x1="150" y1="796" x2="230" y2="796" stroke-width="1"/>
<line x1="230" y1="796" x2="230" y2="812" stroke-width="1"/>
<line x1="218" y1="812" x2="242" y2="812" stroke-width="1.5"/>
<line x1="218" y1="820" x2="242" y2="820" stroke-width="1.5"/>
<line x1="230" y1="820" x2="230" y2="840" stroke-width="1"/>
<text class="ts" x="250" y="820">C3 100 nF</text>

<text class="ts" x="360" y="800">−9 V (pin 4)</text>
<line x1="450" y1="796" x2="520" y2="796" stroke-width="1"/>
<line x1="520" y1="796" x2="520" y2="812" stroke-width="1"/>
<line x1="508" y1="812" x2="532" y2="812" stroke-width="1.5"/>
<line x1="508" y1="820" x2="532" y2="820" stroke-width="1.5"/>
<line x1="520" y1="820" x2="520" y2="840" stroke-width="1"/>
<text class="ts" x="540" y="820">C4 100 nF</text>

<line x1="200" y1="840" x2="560" y2="840" stroke-width="1.5"/>
<g stroke-width="1.5">
<line x1="380" y1="840" x2="380" y2="850"/><line x1="372" y1="850" x2="388" y2="850"/><line x1="375" y1="855" x2="385" y2="855"/><line x1="378" y1="860" x2="382" y2="860"/>
</g>
</svg>
